<?xml version="1.0" encoding="UTF-8" standalone="no"?>
<!-- Dark version of the icon for the UltraLibrarian Importer plugin -->
<svg xmlns="http://www.w3.org/2000/svg" width="48" height="48" viewBox="0 0 48 48">
  <defs>
    <linearGradient id="kicadGradientDark" x1="0%" y1="0%" x2="100%" y2="100%">
      <stop offset="0%" stop-color="#2C4CC1" />
      <stop offset="100%" stop-color="#1A3182" />
    </linearGradient>
    <linearGradient id="ultraGradientDark" x1="0%" y1="0%" x2="100%" y2="100%">
      <stop offset="0%" stop-color="#E67700" />
      <stop offset="100%" stop-color="#CC5500" />
    </linearGradient>
    <filter id="shadowDark" x="-20%" y="-20%" width="140%" height="140%">
      <feDropShadow dx="0" dy="1" stdDeviation="1" flood-opacity="0.5" />
    </filter>
  </defs>
  
  <!-- Main Background -->
  <rect x="4" y="4" width="40" height="40" rx="6" fill="url(#kicadGradientDark)" filter="url(#shadowDark)" />
  
  <!-- Circuit Board Pattern -->
  <path d="M8 24 H40 M24 8 V40" stroke="#FFFFFF" stroke-width="0.5" stroke-opacity="0.15" />
  <path d="M16 16 H32 M16 32 H32" stroke="#FFFFFF" stroke-width="0.5" stroke-opacity="0.15" />
  
  <!-- Component Symbol (IC) -->
  <rect x="14" y="18" width="20" height="12" rx="1" fill="#FFFFFF" fill-opacity="0.85" />
  <line x1="10" y1="20" x2="14" y2="20" stroke="#FFFFFF" stroke-width="1.5" />
  <line x1="10" y1="24" x2="14" y2="24" stroke="#FFFFFF" stroke-width="1.5" />
  <line x1="10" y1="28" x2="14" y2="28" stroke="#FFFFFF" stroke-width="1.5" />
  <line x1="34" y1="20" x2="38" y2="20" stroke="#FFFFFF" stroke-width="1.5" />
  <line x1="34" y1="24" x2="38" y2="24" stroke="#FFFFFF" stroke-width="1.5" />
  <line x1="34" y1="28" x2="38" y2="28" stroke="#FFFFFF" stroke-width="1.5" />
  
  <!-- UltraLibrarian "U" Letter -->
  <path d="M19 21 V27 C19 28 20 29 21 29 H27 C28 29 29 28 29 27 V21" 
        fill="none" stroke="url(#ultraGradientDark)" stroke-width="2" stroke-linecap="round" />
  
  <!-- Download Arrow -->
  <circle cx="36" cy="36" r="6" fill="url(#ultraGradientDark)" filter="url(#shadowDark)" />
  <path d="M36 32 V38 M33 35 L36 38 L39 35" fill="none" stroke="#FFFFFF" stroke-width="2" stroke-linecap="round" stroke-linejoin="round" />
</svg>